<svg version="1.1" class="logo-sygnet" xmlns="http://www.w3.org/2000/svg" xmlns:xlink="http://www.w3.org/1999/xlink" x="0px" y="0px" viewBox="0 0 63 63" style="enable-background:new 0 0 63 63;" xml:space="preserve"> <path fill="#1D1D1B" class="logo-sygnet__text" d="M8.2,20.3c-0.2,0.1-0.4,0.4-0.8,0.3c-0.1-0.6-0.6-0.4-0.8-0.4c0-0.1,0-0.2,0-0.4l1-0.1v-1.5 c-1.1,0-2.2-0.1-3.2-0.1v-0.3l2.2-0.1l0.9-0.1c0-0.3,0-0.5,0-0.8c0.4,0,0.7-0.1,1-0.4c0-0.1,0-0.1-3-0.1c0-0.4,0-0.4,0.1-0.4 c1.3-0.1,2.6-0.1,3.9-0.2c0.2,0.2,0.4,0.3,0.3,0.7c-0.8,0.1-1.1,0.5-1.6,1v0.2c0.7,0,1.4,0,2.1,0c0.3-0.3,1.3-0.7,1.3,0.3l-1.9,0.2 c0,0.1,0,0.1-1.5,0.1v2C8.3,20.3,8.2,20.3,8.2,20.3z M5.2,14.6c-0.1,0-0.2,0-0.2-0.2H4.8c-0.1,0.6-0.3,1.1-0.6,1.6l0.1,0.3l0.5-0.1 c0.1-0.3,0.2-0.7,0.4-1C7,15.1,8.8,15,10.5,15l-0.2,0.8c0.2,0,0.2,0,1.3-0.5c-0.4-1.8-1.6-0.4-2.2-0.9c0.4-0.5,1-0.9,1.1-1.2 c-0.2-0.2-0.5-0.4-0.8-0.4c-0.3,0.6-0.6,1.2-0.8,1.8L5.2,14.6L5.2,14.6z M6,14.5c-0.3-0.8-0.7-1.1-0.8-1.3c0-0.1,0.1-0.1,0.2-0.1 c0.5,0.1,1.2,0.4,1,1.4H6z M7.8,14.2c-0.6,0-0.9-1.3-0.9-1.5C7.4,12.8,8.2,13,8,14.1C7.9,14.1,7.9,14.2,7.8,14.2z M3.6,24.5 c0,0-2.5,0-2.8,0c0-0.1,0-0.2,0-0.4C1.6,24,2.6,24,3.5,24l0.1-2.3c0.2,0,0.5,0,0.7,0.1c-0.1,0.4-0.1,0.4-0.1,2.2C5,24,5.9,24,6.7,24 c0.1-0.1,0.2-0.2,0.3-0.3c0.3,0,0.4,0.1,0.9,0.4c0,0.1-0.1,0.2-0.1,0.3c-1.1,0-2.2,0.1-3.3,0.1c0.5,2,1.3,2.8,3.3,3.9v0.2 c-2.1,0.9-3.2-2.4-3.7-3.5c-0.6,2-1.5,3.5-3.6,4.1c0.2-0.7,1-1,1.6-1.5C3,26.8,3.4,25.7,3.6,24.5z M2.2,40c-0.1-1-0.1-2-0.1-3 C2,37,2,36.9,1.9,36.8c-0.4,0.5-0.9,1.1-1.3,1.6c0-1.2,0.9-2.2,1.2-3.2c-0.4,0-0.8,0-1.3,0v-0.3c0.5-0.1,0.9-0.1,1.4-0.1v-1.2 c-0.4,0.1-0.9,0.1-1.4,0.2c0-0.1,0-0.1,0-0.2c0.9-0.5,2.2-1.6,3.3-0.9v0.4c-0.4,0.1-0.9,0.2-1.3,0.4c0,0.4,0,0.9,0,1.3 c0.5,0,0.5-0.3,0.9-0.3c0.2,0.2,0.4,0.3,0.6,0.5V35c-0.5,0.1-1,0.2-1.5,0.2c0,0.2,0,0.3,0.1,0.5c0.6,0.3,1,0.2,1,1.2 c-0.2,0-0.3-0.1-0.5-0.1c-0.3-0.4-0.3-0.3-0.6-0.4c0,1.2,0,2.3,0,3.5C2.5,39.9,2.3,40,2.2,40L2.2,40z M6.1,39.9 c0.2-0.1,0.3-0.2,0.5-0.2l0.1-2.6c0.4-0.1,0.8-0.2,1.2-0.4c0-0.7-0.2-0.8-0.6-0.8c-0.1,0.2-0.2,0.3-0.2,0.5H6.7 c0-1.1-0.3-3.5,0.2-3.9v-0.4c-0.3,0-0.6,0-0.8-0.1v4.6c-1,0.2-2.1,0.2-2.8,0.7c0,0.1,0,0.2,0.1,0.2c0.4,0,0.4,0,2.5-0.4 c0-0.1,0-0.1,0.4-0.1L6.1,39.9L6.1,39.9z M4.2,35c0.3,0.1,0.3,1.2,1.3,1.3c-0.1-1.2-0.1-1-1-1.6c-0.1,0-0.2,0-0.3,0.1V35z M5.2,34.2 c-0.4-0.6-0.9-1-0.9-1.5c0.5,0.1,1.4,0.3,1.2,1.4C5.6,34.1,5.2,34.2,5.2,34.2z M3.6,48.3h3v-5.1H3.7c0-0.1,0-0.3,0-0.4 c1.2,0,2.5,0,3.7-0.1c0.7-0.1,1.4-0.2,2.2-0.4c0.1,0.1,0.6,0.3,0.5,0.8c-0.2,0-0.4,0-0.6,0l-2.2,0.1v5h2.2c0.6-0.4,0.6-0.6,1.4,0 c0,0.4,0,0.4-0.1,0.4l-5.2,0.1c-0.7,0-1.3,0-2,0C3.6,48.6,3.6,48.3,3.6,48.3z M22.8,62.2v-7.3c0.3,0,0.6,0.1,0.8,0.2 c0,0.3-0.2,0.7-0.1,1.5l0.9,0.5c0,0.3,0,0.5,0.1,0.8h-0.3c-0.2-0.3-0.4-0.6-0.8-0.7c0,0.2,0,0.4,0,0.7c-0.1,0-0.1,4.5,0,4.5 c0,0.1-0.1,0.3-0.1,0.4c-0.1,0-0.3,0.1-0.4,0.1C22.8,62.7,22.8,62.4,22.8,62.2L22.8,62.2z M21.9,59.2c0.9-0.4,0.6-1.2,0.6-1.9 c-0.1,0-0.2,0-0.3,0c-0.1,0.7-0.4,1-0.4,1.8L21.9,59.2L21.9,59.2L21.9,59.2z M24.1,57.9c0,0.2-0.1,0.3-0.1,0.5c1.7,0,3.5,0,5.2-0.1 c0-0.3,0-0.5-0.2-0.6c-0.7,0-1.5,0-2.2,0.1v-0.3l2-0.1v-0.5c-0.7-0.4-1.5,0-1.9,0c0-0.2,0-0.3,0-0.5c0.8,0,1.5,0,2.3-0.1 c0.1-0.3,0-0.5-0.3-0.7c-0.9,0.1-1.3,0.3-2,0.3c0-0.3,0.1-0.6,0.2-0.9c-1-0.2-1-0.1-1,0.8c-0.6,0.1-1.3,0.1-1.9,0.2v0.3 c0.6,0,1.2,0,1.9,0.1v0.4C26,57,26,57,24.7,57c0,0.1,0,0.2,0,0.2c0.5,0.2,1,0.2,1.5,0.2c0,0.1,0,0.2,0,0.3l-1.7,0.1L24.1,57.9 L24.1,57.9z M24.9,61.6v-3c0.9,0.1,1.7,0.2,2.6,0.2c0.3-0.2,0.5-0.2,1,0.2c0,0.1,0,0.2,0,0.4c-0.1,0-0.1,0.1-0.2,0.2 c-0.1,1-0.1,2.1-0.1,3.1c-0.2,0.2-0.4,0.3-0.6,0.2c-0.2-0.6-0.5-0.4-0.7-0.5c0-0.1,0-0.2,0-0.3c0.2,0,0.5-0.1,0.7-0.1h0.1v-1 c-2.2,0-2.2,0-2.2,0.1c0,0.6,0,1.2-0.1,1.8L24.9,63C24.9,62.5,24.9,62,24.9,61.6C24.9,61.6,24.9,61.6,24.9,61.6z M27.5,59.7 c0-0.1,0-0.2,0.1-0.2c-0.6,0-1.3,0-2,0c-0.1,0-0.1,0-0.1,0.4C27.5,59.8,27.5,59.8,27.5,59.7L27.5,59.7z M27.5,60.2h-1.9l-0.2,0.2 c-0.1,0.1-0.1,0.1-0.1,0.2h2.3v-0.4C27.7,60.2,27.5,60.2,27.5,60.2z M34.9,60.6v-0.2h1.4v-0.2c0-1.9,0-1.9-0.1-1.9 c-0.4,0.5-0.8,1.1-1.1,1.6c-0.2,0.2-0.4,0.4-0.6,0.6c-0.5,0.4-1,0.8-1.5,1.1c0-0.9,0.9-1.3,1.4-1.9l1.4-2.2c0.1,0,0.1,0,0.1-0.4 c-2,0-2,0-2,0.1c-0.6,0-0.6,0-0.8-0.1V57c0.9-0.1,1.9-0.1,2.9-0.2c0.1,0,0.2,0,0.3,0c0-0.6,0-1.2,0.1-1.8c0.5,0,0.5,0,0.7,0.2v1.6 c0.7,0.1,1.5,0.1,2.2,0c0.4-0.4,1.3-0.4,1.1,0.5c-1.1,0-2.1,0.1-3.1,0.2c0.8,1.5,1.5,2.2,3.3,3.2c0,0.1,0,0.2,0,0.3 c-1,0.5-1.3,0-1.8-0.4c-0.3-0.2-0.5-0.5-0.8-0.7c-0.3-0.5-0.7-1-1-1.5c0-0.1-0.1-0.1-0.1-0.2c0,0.7,0,1.5,0,2.2h0.5 c0.2-0.3,0.6-0.4,0.8-0.2c0.2,0.1,0.3,0.4,0.3,0.6L37,60.9c0,0.5,0.2,1.9-0.6,2l-0.1-2l-1.4-0.1C34.9,60.7,34.9,60.6,34.9,60.6z M51.9,54.1c-0.4-2.1,0-4.6-0.2-6.6c-0.2-0.1-0.3-0.2-0.4-0.2c0-0.1,0-0.2,0-0.3c0.4,0,0.7-0.1,1.2,0.3c-0.1,0.8-0.1,1.5-0.1,2.3 c0.6,0.1,2.9,0.5,2.7,1.9h-0.5c-0.9-0.9-1.3-1-2.2-1.4c-0.4,0.2-0.1,3-0.1,3.9C52.1,54,52,54,51.9,54.1z M54.9,49.1 C54,48.1,54,48.1,54,47.9c0.4,0,0.8,0.2,1.2,0.4c0,0.3,0.1,0.5,0.1,0.8H54.9z M55.9,48.4c-0.4-0.3-0.7-0.7-1.1-1 c0.9-0.1,1.2-0.1,1.4,1H55.9z M56.2,44.6c-0.8-0.6-0.8-1-0.9-1.5c0.2,0,0.4,0.1,0.6,0.4c1.6,0,4.4-2.8,5.6-3.9h0.3 C61.5,40.7,57.2,44.3,56.2,44.6L56.2,44.6z M56.5,40.7c-0.3-0.8-0.7-1.2-1.1-1.5c0-0.1-0.1-0.3-0.1-0.4c0.8,0.2,1.8,0.4,1.6,1.7 L56.5,40.7z M57.6,36.8c0-0.1,0-0.2,0-0.2c1.5-1.2,3.1-2.5,3.7-4.4c-1,0.1-4.8,1.2-4.5-0.5c1.5,1,4.2-0.9,5.6,0.2c0,0.1,0,0.2,0,0.4 c-0.1,0-0.2,0.1-0.3,0.2C61,34.2,59.6,36.1,57.6,36.8z M57.8,30.8c-0.5-0.4-0.5-0.7-0.5-1c1,0.3,2.7,0.2,4,0c0.2,0,0.4,0.1,0.5,0.2 l0.1,0.5C60.5,30.4,59.2,30.5,57.8,30.8z M58.2,21c-0.1-0.2-0.5-0.5-0.5-0.6c0.3,0,1.2-0.2,1.2,0.7c-0.1,0-0.1,0.1-0.2,0.1 c0,1,0,1.9,0,2.9c0,1.9,0.1,2.4,0,3.2c-0.2,0-0.3,0.1-0.4,0.1V21H58.2z M43.8,59.4v-6.9c1,0.5,3.5-0.3,4.2,0.4c-0.1,1-0.1,1-0.1,5.9 c-0.1,0.1-0.1,0.1-0.5,0.2c-0.1-0.2-0.1-0.5-0.2-0.7h-2.7c-0.1,0.4-0.2,0.7-0.2,1.1C44,59.3,43.9,59.4,43.8,59.4z M47.2,55.1v-1.8 c-0.9-0.1-1.9-0.1-2.8,0c0,0.6,0,1.2,0,1.8C44.3,55.1,47.2,55.1,47.2,55.1z M44.4,57.8c1-0.1,1.9-0.1,2.8-0.2c0-0.7,0-1.3,0-2 c-0.9,0-1.9,0-2.8,0C44.3,56.4,44.3,57.1,44.4,57.8z M17.4,53.2c-0.2,0-0.3,0.1-0.5,0.2c-0.2-0.2-0.5-0.4-0.8-0.5 c0-0.1-0.1-0.2-0.1-0.3c0.3,0,0.5-0.1,0.8-0.2c0.1,0,0.1,0,0.1-1.5h-1.5v0.1c-0.1,0.8-0.1,1.6,0,2.4c0.6,0,1.4,0.1,2.2-0.1 c0.1,0.1,0.2,0.1,0.3,0.2c0,0.8-0.5,1.5-0.8,2.3c0.3,0.4,0.8,0.7,1.3,0.8c-0.1,0.2-0.1,0.3-0.2,0.5c-0.9,0.3-1.3-0.6-1.6-0.6 c-0.4,0.5-1.2,1.3-1.8,1.3c0-0.9,0-1.7,0-2.5c0.1,0,0.1,0,0.1-0.6c-0.5,0.1-1.1,0.1-1.6,0.2H13c0,0.2,0,0.5,0,0.7h0.7 c0.2-0.4,0.9-0.3,1,0.4c-0.5,0.1-1.1,0.1-1.7,0.2c0,1.5,0,1.5-0.1,1.7c-0.2,0-0.3,0-0.5,0c0-0.6-0.1-1.2-0.1-1.7 c-0.4-0.1-0.9-0.1-1.3-0.2c0-0.2,0-0.3,0.1-0.4h1.2v-0.8c-0.5,0-0.9-0.1-1.4-0.1v-0.3c0.2-0.1,0.5-0.1,0.7-0.1 c0-0.4-0.1-0.8-0.3-1.2c-0.2,0-0.4-0.1-0.6-0.1v-0.4c0.6,0,1.1-0.1,1.6-0.1v-0.7h-1.2c0-0.2,0-0.3,0-0.5c0.4,0,0.8,0,1.2,0v-1.2 c0.3,0,0.5,0,0.8,0.1l-0.1,1c0.5,0,0.5,0,0.8-0.3c0.2,0.1,0.4,0.3,0.6,0.4v0.3c-0.5,0-1,0.1-1.5,0.2c0,0.2,0,0.4,0.1,0.6 c0.6,0,0.9-0.3,1.8,0v-2.1c0.9,0.1,1.7,0.2,2.6,0C17.7,50.8,17.7,52.6,17.4,53.2L17.4,53.2L17.4,53.2z M13.6,54.3 c0.3-0.2,0.6-0.4,1.1,0c0-0.4,0.1-0.8,0.1-1.2C14,53.2,13.9,53.6,13.6,54.3z M12.3,54.3c0.2,0,0.5-0.1,0.7-0.1 c0.1-0.4,0.3-0.8,0.4-1.1C13,53,12.5,53,12,53.1C12,53.4,12.3,53.7,12.3,54.3L12.3,54.3z M16.5,55.3h0.2c0.1-0.5,0.2-1,0.4-1.4 L16,54.1C16.1,54.4,16.1,54.4,16.5,55.3z M15.5,57c1.2-1.3,0.7-1.3,0-2.8C15.5,55.1,15.5,56.1,15.5,57L15.5,57z M51.3,17.7 c0,0.2,0.1,0.4,0.2,0.6c0.9-0.2,1.5-2.3,1.5-3.1C53.1,15.3,51.6,17.2,51.3,17.7z M57.2,13.7C57.2,13.7,57.2,13.7,57.2,13.7l-0.1,0 L56.8,14l-1.9,0.1c0-0.5,0.1-0.9,0.2-1.3c-0.5-0.2-0.5-0.2-1.2-0.3v0.3c0.2,0.2,0.7,0.8,0.4,1.5c-1,0-2.3,0-2.9-0.2 c0,1.5,1.6,0.7,2.9,0.7c0,1.1,0.1,2.1,0.2,3.1c0,0.1,0,0.2,0,0.3c-0.2,0-0.2,0-1.3-0.7v0.4c0.3,0.3,0.7,0.5,1,1.2c0.2,0,0.4,0,0.5,0 c0.7-1.1,0.3-3.5,0.3-4.5c1,0,1.9,0,2.9,0c-0.1-0.5-0.2-0.6-0.4-0.7h0C57.4,13.8,57.3,13.7,57.2,13.7L57.2,13.7z M55.8,15.4 c0,0.1,0,0.2,0,0.3c0.5,0.3,1.2,1.5,1.5,2.4c0.1,0,0.3-0.1,0.4-0.1C57.6,16.5,56.9,15.6,55.8,15.4z M58.3,12.2 c-1.1-1.1-2.4,0.4-1.1,1.5c0.1,0,0.2,0,0.3,0l0.1,0.1C58.4,13.3,58.3,13,58.3,12.2z M57.8,13c-0.2,0.1-0.2,0.1-0.7,0.2 C57.1,13,57,12.8,57,12.5c0.3-0.3,0.3-0.4,0.9-0.1C57.9,12.6,57.8,12.8,57.8,13z M14.8,13.1l-4.2-5.3l2.5-2c0.3-0.2,0.6-0.3,1-0.3 c0.4,0,0.7,0.2,0.9,0.5l1.1,1.3c0.4,0.4,0.4,1,0.1,1.5c-0.1,0.2-0.2,0.3-0.4,0.4l-1.8,1.4l1.4,1.8c0.2,0.2,0.1,0.5-0.1,0.6 c0,0,0,0,0,0c-0.1,0-0.1,0.1-0.2,0.1s-0.1,0-0.2,0C15,13.3,14.9,13.2,14.8,13.1L14.8,13.1z M13.5,10l1.8-1.4 c0.1-0.1,0.2-0.2,0.2-0.3c0-0.1,0-0.2-0.1-0.3l-1.1-1.3c-0.1-0.1-0.2-0.2-0.3-0.2c-0.1,0-0.2,0-0.3,0.1L11.9,8L13.5,10L13.5,10z M20.9,8.1l-0.5-1.3c0-0.1,0-0.2,0-0.3c0.1-0.2,0.2-0.3,0.4-0.3c0.2,0,0.3,0.1,0.4,0.3l0.5,1.4c0,0.1,0.1,0.2,0.2,0.2 c0.1,0,0.2,0,0.4,0l0.9-0.3c0.2-0.1,0.3-0.2,0.3-0.4c0-0.1,0-0.1,0-0.2l-1.9-5c-0.1-0.2,0-0.4,0.1-0.5c0.1-0.1,0.3-0.2,0.5-0.1 c0.1,0,0.2,0.1,0.3,0.3l1.9,5c0.1,0.3,0.1,0.7,0,1.1c-0.1,0.3-0.4,0.6-0.8,0.7l-0.9,0.3c-0.3,0.1-0.7,0.1-1.1,0 C21.2,8.7,21,8.5,20.9,8.1z M29.3,6.6l1.8-6.3c0-0.2,0.3-0.4,0.5-0.3c0.2,0,0.4,0.1,0.4,0.3l1.9,6.3c0.1,0.2,0,0.5-0.2,0.6 c-0.1,0-0.1,0-0.2,0c-0.2,0-0.4-0.1-0.5-0.3l-0.4-1.2h-2.1L30.1,7c0,0.1-0.1,0.1-0.1,0.2c-0.1,0.1-0.2,0.1-0.2,0.1 c-0.2,0-0.4-0.1-0.4-0.3c0-0.1,0-0.1,0-0.2L29.3,6.6L29.3,6.6z M31.5,2.1l-0.8,2.6h1.5L31.5,2.1L31.5,2.1z M39.3,2.1L39.7,1L44,2.4 l-0.4,1.2c0,0.1-0.1,0.2-0.2,0.3c-0.1,0.1-0.2,0.1-0.3,0c-0.2-0.1-0.4-0.3-0.3-0.6L42.8,3L42,2.7l-1.9,5.5c-0.1,0.2-0.3,0.4-0.6,0.3 c-0.1,0-0.1-0.1-0.2-0.1c-0.1-0.1-0.2-0.2-0.2-0.3c0-0.1,0-0.1,0-0.2l1.9-5.5l-0.9-0.3l-0.1,0.3c0,0.1-0.1,0.2-0.2,0.3 c-0.1,0.1-0.2,0.1-0.3,0c-0.1,0-0.2-0.1-0.3-0.2C39.2,2.4,39.2,2.2,39.3,2.1L39.3,2.1z M44.7,10.4l3.8-5c0.1-0.1,0.2-0.2,0.3-0.2 c0.1,0,0.2,0,0.3,0.1c0.1,0.1,0.2,0.2,0.2,0.3l0,0.2c0,0.1,0,0.1-0.1,0.2l-1.3,1.7l3.8-0.2c0.1,0,0.2,0,0.3,0.1 c0.1,0.1,0.2,0.2,0.2,0.3c0,0.1,0,0.2-0.1,0.3c-0.1,0.1-0.2,0.2-0.3,0.2l-4.3,0.3l0.9,4.3V13c0,0.1,0,0.1-0.1,0.1 c-0.1,0.1-0.2,0.2-0.3,0.2c-0.1,0-0.3,0-0.4-0.1c-0.1-0.1-0.2-0.2-0.2-0.3l-0.8-3.8l-1.3,1.8c-0.1,0.1-0.2,0.2-0.3,0.2 c-0.1,0-0.2,0-0.3-0.1C44.5,10.8,44.5,10.6,44.7,10.4C44.6,10.4,44.6,10.4,44.7,10.4z"></path> <path fill="#E30613" class="logo-sygnet__symbol" d="M31.5,11.6c-11.1,0-20.1,9-20,20.1c0,11.1,9,20.1,20.1,20s20.1-9,20-20.1C51.5,20.5,42.6,11.6,31.5,11.6 C31.5,11.6,31.5,11.6,31.5,11.6z M14.5,31.6c-0.1-9.4,7.4-17.1,16.8-17.2c0.1,0,0.1,0,0.2,0c9.4,0,17,7.6,17,17c0,0.1,0,0.2,0,0.2 H14.5z"></path> <path fill="#ffffff" class="logo-sygnet__bg" d="M48.5,31.4v0.2h-34c-0.1-9.4,7.4-17.1,16.8-17.2h0.2C40.9,14.4,48.5,22,48.5,31.4z"></path> </svg>